<?xml version="1.0" encoding="UTF-8"?>
<svg id="Capa_1" xmlns="http://www.w3.org/2000/svg" version="1.1" xmlns:xlink="http://www.w3.org/1999/xlink" viewBox="0 0 1000 1000">
  <!-- Generator: Adobe Illustrator 30.2.1, SVG Export Plug-In . SVG Version: 2.1.1 Build 1)  -->
  <defs>
    <style>
      .st0 {
        fill: #fff;
      }

      .st1 {
        display: none;
      }
    </style>
  </defs>
  <rect class="st1" width="1000" height="1000"/>
  <g>
    <path class="st0" d="M326.6,641.1c15.2-.7,25.7-8.6,30.7-22.2,3-10.2,4.3-21.1,4.4-32.1l.2-41.1,74.6,10.1v33.8c.3,46.7-19.5,88.3-65.8,103.4-27.4,8.9-56.5,9.1-84.6,2.2-36.1-8.9-63.1-35.5-71.8-71.7-3.4-14.3-5.3-28.5-5.3-43.7v-161.8c.2-52.2,21-98.5,74.4-112.6,57.6-15.1,132.1-.4,148.5,66.7,2,10.5,4.3,21.2,4.3,32v38.1c.1,0-74.7,10-74.7,10v-42.6c-.2-9.9-2.1-20-4.6-29.2-4.9-14-16.3-21.9-30.9-22.5-16.5-.7-31.1,8.2-35.9,24.3-2.8,9.3-4.5,19.1-4.5,29.3v177.6c0,9.4,1.5,18.6,4.1,27,5,16.4,19.4,25.8,36.9,25Z"/>
    <path class="st0" d="M786,342.8c-19.3,0-34.9-15.6-35-34.9h-68.6c0-.1-48.7,270.2-48.7,270.2l-49.7-270.3-108.6.2v385s71.4,0,71.4,0l-3.1-279-.4-15.5c1.3,1.4,2,3.9,2,7.2l55.8,287.3,64.6-.2,56-295.7c1.1,4.5.3,8.6.2,13.4l-1.1,49.8-1.7,232.6,71.9.2v-350.6c-1.6.2-3.3.4-5,.4Z"/>
    <image width="551" height="550" transform="translate(724.8 234) scale(.2)" xlink:href="Logo CM-1.png"/>
  </g>
</svg>